<svg id="svg_gauge" xmlns="http://www.w3.org/2000/svg" xmlns:xlink="http://www.w3.org/1999/xlink" viewBox="0 0 520 443.54"><defs><style>.cls-1{fill-rule:evenodd;fill:url(#linear-gradient);}</style><linearGradient id="linear-gradient" x1="2" y1="223.77" x2="522" y2="223.77" gradientUnits="userSpaceOnUse"><stop offset="0" stop-color="#d51c23"/><stop offset="0.45" stop-color="#ecd51b"/><stop offset="0.55" stop-color="#d9d126"/><stop offset="1" stop-color="#73bf44"/></linearGradient></defs><title>gauge</title><path id="gauge" class="cls-1" d="M425.12,423.44L446.69,445A259.17,259.17,0,0,0,522,262C522,118.41,405.59,2,262,2S2,118.41,2,262A259.18,259.18,0,0,0,77.84,445.54l22.07-22.07A228.78,228.78,0,0,1,33,261.5C33,134.75,135.75,32,262.5,32S492,134.75,492,261.5A228.78,228.78,0,0,1,425.12,423.44Z" transform="translate(-2 -2)"/></svg>