<?xml version="1.0" encoding="utf-8"?>
<!-- Generator: Adobe Illustrator 19.2.0, SVG Export Plug-In . SVG Version: 6.00 Build 0)  -->
<svg version="1.1" id="Layer_1" xmlns="http://www.w3.org/2000/svg" xmlns:xlink="http://www.w3.org/1999/xlink" x="0px" y="0px"
	 viewBox="0 0 800 450" style="enable-background:new 0 0 800 450;" xml:space="preserve">
<style type="text/css">
	.st0{fill:#DF1C4C;}
	.st1{fill:#182A55;}
	.st2{fill:#A2D9F6;}
</style>
<rect class="st0" width="800" height="450"/>
<polygon class="st1" points="0,232 800,401 800,0 0,0 "/>
<polygon class="st2" points="0,172 800,341 800,0 0,0 "/>
<polygon class="st0" points="0,122 800,291 800,0 0,0 "/>
<polygon class="st1" points="0,82 800,251 800,0 0,0 "/>
<polygon class="st2" points="0,264.1 649,0 0,0 "/>
<polygon class="st1" points="0,194.1 477,0 0,0 "/>
<polygon class="st0" points="649,0 149,203.5 219.6,218.4 800,39.1 800,0 "/>
<polygon class="st1" points="800,39.1 315.7,188.7 382.4,202.8 800,106.4 "/>
<polygon class="st2" points="800,106.4 472.9,181.9 544.3,197 800,141.5 "/>
<path class="st2" d="M0,125.5"/>
<polygon class="st2" points="238.5,0 0,132.1 0,0 "/>
<path class="st0" d="M0,49.9C0,49.9,57.3,0,52.5,0S0,0,0,0V49.9z"/>
<polygon class="st1" points="0,435 800,418.3 800,450 0,450 "/>
</svg>
